<mxfile host="app.diagrams.net" agent="Mozilla/5.0 (Windows NT 10.0; Win64; x64) AppleWebKit/537.36 (KHTML, like Gecko) Chrome/135.0.0.0 Safari/537.36" version="26.2.14" pages="3">
  <diagram name="Page-1" id="xa0yWHw8Jf8kGSunjOHY">
    <mxGraphModel dx="7501" dy="1401" grid="0" gridSize="10" guides="1" tooltips="1" connect="1" arrows="1" fold="1" page="0" pageScale="1" pageWidth="827" pageHeight="1169" math="0" shadow="0">
      <root>
        <mxCell id="0" />
        <mxCell id="1" parent="0" />
        <mxCell id="Yehz_bRtXj_O8yKPMXEu-1" value="Start: User Prompt" style="rounded=1;whiteSpace=wrap;arcSize=50;strokeWidth=2;" parent="1" vertex="1">
          <mxGeometry x="-5143" y="-189" width="156" height="39" as="geometry" />
        </mxCell>
        <mxCell id="Yehz_bRtXj_O8yKPMXEu-2" value="Person Object Activated" style="whiteSpace=wrap;strokeWidth=2;" parent="1" vertex="1">
          <mxGeometry x="-5180" y="-100" width="231" height="54" as="geometry" />
        </mxCell>
        <mxCell id="Yehz_bRtXj_O8yKPMXEu-3" value="Angel Persona&#xa;(Gentle Prompt)" style="whiteSpace=wrap;strokeWidth=2;" parent="1" vertex="1">
          <mxGeometry x="-5350" y="4" width="260" height="78" as="geometry" />
        </mxCell>
        <mxCell id="Yehz_bRtXj_O8yKPMXEu-4" value="Devil Persona&#xa;(Direct Prompt)" style="whiteSpace=wrap;strokeWidth=2;" parent="1" vertex="1">
          <mxGeometry x="-5040" y="4" width="260" height="78" as="geometry" />
        </mxCell>
        <mxCell id="Yehz_bRtXj_O8yKPMXEu-5" value="LLM Call - Angel&#39;s Response" style="strokeWidth=2;shape=process;whiteSpace=wrap;size=0.04;" parent="1" vertex="1">
          <mxGeometry x="-5335" y="132" width="231" height="39" as="geometry" />
        </mxCell>
        <mxCell id="Yehz_bRtXj_O8yKPMXEu-6" value="LLM Call - Devil&#39;s Response" style="strokeWidth=2;shape=process;whiteSpace=wrap;size=0.04;" parent="1" vertex="1">
          <mxGeometry x="-5022" y="132" width="225" height="39" as="geometry" />
        </mxCell>
        <mxCell id="Yehz_bRtXj_O8yKPMXEu-7" value="Referee Receives Both Responses" style="whiteSpace=wrap;strokeWidth=2;" parent="1" vertex="1">
          <mxGeometry x="-5195" y="221" width="260" height="78" as="geometry" />
        </mxCell>
        <mxCell id="Yehz_bRtXj_O8yKPMXEu-8" value="LLM Call - Referee Decision" style="strokeWidth=2;shape=process;whiteSpace=wrap;size=0.04;" parent="1" vertex="1">
          <mxGeometry x="-5178" y="349" width="225" height="39" as="geometry" />
        </mxCell>
        <mxCell id="Yehz_bRtXj_O8yKPMXEu-9" value="Referee Selects Response" style="rhombus;strokeWidth=2;whiteSpace=wrap;" parent="1" vertex="1">
          <mxGeometry x="-5184" y="438" width="239" height="239" as="geometry" />
        </mxCell>
        <mxCell id="Yehz_bRtXj_O8yKPMXEu-10" value="Final AI Response to User" style="rounded=1;whiteSpace=wrap;arcSize=50;strokeWidth=2;" parent="1" vertex="1">
          <mxGeometry x="-5168" y="727" width="207" height="39" as="geometry" />
        </mxCell>
        <mxCell id="Yehz_bRtXj_O8yKPMXEu-11" value="End" style="rounded=1;whiteSpace=wrap;arcSize=50;strokeWidth=2;" parent="1" vertex="1">
          <mxGeometry x="-5091" y="816" width="52" height="39" as="geometry" />
        </mxCell>
        <mxCell id="Yehz_bRtXj_O8yKPMXEu-12" value="" style="curved=1;startArrow=none;endArrow=block;exitX=0.5;exitY=1;entryX=0.5;entryY=0;rounded=0;fontSize=12;startSize=8;endSize=8;" parent="1" source="Yehz_bRtXj_O8yKPMXEu-1" target="Yehz_bRtXj_O8yKPMXEu-2" edge="1">
          <mxGeometry relative="1" as="geometry">
            <Array as="points" />
          </mxGeometry>
        </mxCell>
        <mxCell id="Yehz_bRtXj_O8yKPMXEu-13" value="" style="curved=1;startArrow=none;endArrow=block;exitX=0.15;exitY=1;entryX=0.5;entryY=0;rounded=0;fontSize=12;startSize=8;endSize=8;" parent="1" source="Yehz_bRtXj_O8yKPMXEu-2" target="Yehz_bRtXj_O8yKPMXEu-3" edge="1">
          <mxGeometry relative="1" as="geometry">
            <Array as="points">
              <mxPoint x="-5220" y="-21" />
            </Array>
          </mxGeometry>
        </mxCell>
        <mxCell id="Yehz_bRtXj_O8yKPMXEu-14" value="" style="curved=1;startArrow=none;endArrow=block;exitX=0.85;exitY=1;entryX=0.5;entryY=0;rounded=0;fontSize=12;startSize=8;endSize=8;" parent="1" source="Yehz_bRtXj_O8yKPMXEu-2" target="Yehz_bRtXj_O8yKPMXEu-4" edge="1">
          <mxGeometry relative="1" as="geometry">
            <Array as="points">
              <mxPoint x="-4910" y="-21" />
            </Array>
          </mxGeometry>
        </mxCell>
        <mxCell id="Yehz_bRtXj_O8yKPMXEu-15" value="" style="curved=1;startArrow=none;endArrow=block;exitX=0.5;exitY=1;entryX=0.5;entryY=0;rounded=0;fontSize=12;startSize=8;endSize=8;" parent="1" source="Yehz_bRtXj_O8yKPMXEu-3" target="Yehz_bRtXj_O8yKPMXEu-5" edge="1">
          <mxGeometry relative="1" as="geometry">
            <Array as="points" />
          </mxGeometry>
        </mxCell>
        <mxCell id="Yehz_bRtXj_O8yKPMXEu-16" value="" style="curved=1;startArrow=none;endArrow=block;exitX=0.5;exitY=1;entryX=0.5;entryY=0;rounded=0;fontSize=12;startSize=8;endSize=8;" parent="1" source="Yehz_bRtXj_O8yKPMXEu-4" target="Yehz_bRtXj_O8yKPMXEu-6" edge="1">
          <mxGeometry relative="1" as="geometry">
            <Array as="points" />
          </mxGeometry>
        </mxCell>
        <mxCell id="Yehz_bRtXj_O8yKPMXEu-17" value="" style="curved=1;startArrow=none;endArrow=block;exitX=0.5;exitY=1;entryX=0.14;entryY=0;rounded=0;fontSize=12;startSize=8;endSize=8;" parent="1" source="Yehz_bRtXj_O8yKPMXEu-5" target="Yehz_bRtXj_O8yKPMXEu-7" edge="1">
          <mxGeometry relative="1" as="geometry">
            <Array as="points">
              <mxPoint x="-5220" y="196" />
            </Array>
          </mxGeometry>
        </mxCell>
        <mxCell id="Yehz_bRtXj_O8yKPMXEu-18" value="" style="curved=1;startArrow=none;endArrow=block;exitX=0.5;exitY=1;entryX=0.86;entryY=0;rounded=0;fontSize=12;startSize=8;endSize=8;" parent="1" source="Yehz_bRtXj_O8yKPMXEu-6" target="Yehz_bRtXj_O8yKPMXEu-7" edge="1">
          <mxGeometry relative="1" as="geometry">
            <Array as="points">
              <mxPoint x="-4910" y="196" />
            </Array>
          </mxGeometry>
        </mxCell>
        <mxCell id="Yehz_bRtXj_O8yKPMXEu-19" value="" style="curved=1;startArrow=none;endArrow=block;exitX=0.5;exitY=1;entryX=0.5;entryY=0;rounded=0;fontSize=12;startSize=8;endSize=8;" parent="1" source="Yehz_bRtXj_O8yKPMXEu-7" target="Yehz_bRtXj_O8yKPMXEu-8" edge="1">
          <mxGeometry relative="1" as="geometry">
            <Array as="points" />
          </mxGeometry>
        </mxCell>
        <mxCell id="Yehz_bRtXj_O8yKPMXEu-20" value="" style="curved=1;startArrow=none;endArrow=block;exitX=0.5;exitY=1;entryX=0.5;entryY=0;rounded=0;fontSize=12;startSize=8;endSize=8;" parent="1" source="Yehz_bRtXj_O8yKPMXEu-8" target="Yehz_bRtXj_O8yKPMXEu-9" edge="1">
          <mxGeometry relative="1" as="geometry">
            <Array as="points" />
          </mxGeometry>
        </mxCell>
        <mxCell id="Yehz_bRtXj_O8yKPMXEu-21" value="" style="curved=1;startArrow=none;endArrow=block;exitX=0.5;exitY=1;entryX=0.5;entryY=0;rounded=0;fontSize=12;startSize=8;endSize=8;" parent="1" source="Yehz_bRtXj_O8yKPMXEu-9" target="Yehz_bRtXj_O8yKPMXEu-10" edge="1">
          <mxGeometry relative="1" as="geometry">
            <Array as="points" />
          </mxGeometry>
        </mxCell>
        <mxCell id="Yehz_bRtXj_O8yKPMXEu-22" value="" style="curved=1;startArrow=none;endArrow=block;exitX=0.5;exitY=1;entryX=0.5;entryY=0;rounded=0;fontSize=12;startSize=8;endSize=8;" parent="1" source="Yehz_bRtXj_O8yKPMXEu-10" target="Yehz_bRtXj_O8yKPMXEu-11" edge="1">
          <mxGeometry relative="1" as="geometry">
            <Array as="points" />
          </mxGeometry>
        </mxCell>
      </root>
    </mxGraphModel>
  </diagram>
  <diagram id="OtFD3YWtEbZY0nQuH-cs" name="Page-2">
    <mxGraphModel dx="2993" dy="1365" grid="0" gridSize="10" guides="1" tooltips="1" connect="1" arrows="1" fold="1" page="0" pageScale="1" pageWidth="827" pageHeight="1169" math="0" shadow="0">
      <root>
        <mxCell id="0" />
        <mxCell id="1" parent="0" />
        <mxCell id="Cl74_eT5VSmjeDzBY-xy-12" style="edgeStyle=orthogonalEdgeStyle;rounded=0;orthogonalLoop=1;jettySize=auto;html=1;exitX=0.5;exitY=1;exitDx=0;exitDy=0;entryX=0.5;entryY=0;entryDx=0;entryDy=0;" parent="1" source="-E05gIv4jN2PlpRda1Wg-1" target="-E05gIv4jN2PlpRda1Wg-2" edge="1">
          <mxGeometry relative="1" as="geometry" />
        </mxCell>
        <mxCell id="-E05gIv4jN2PlpRda1Wg-1" value="Start: User Prompt" style="rounded=1;whiteSpace=wrap;arcSize=50;strokeWidth=2;direction=east;" parent="1" vertex="1">
          <mxGeometry x="231" y="20" width="156" height="39" as="geometry" />
        </mxCell>
        <mxCell id="-E05gIv4jN2PlpRda1Wg-23" value="" style="edgeStyle=none;curved=1;rounded=0;orthogonalLoop=1;jettySize=auto;html=1;fontSize=12;startSize=8;endSize=8;" parent="1" source="-E05gIv4jN2PlpRda1Wg-2" target="-E05gIv4jN2PlpRda1Wg-4" edge="1">
          <mxGeometry relative="1" as="geometry" />
        </mxCell>
        <mxCell id="-E05gIv4jN2PlpRda1Wg-2" value="" style="whiteSpace=wrap;strokeWidth=2;direction=east;" parent="1" vertex="1">
          <mxGeometry x="-121" y="124" width="861" height="1123" as="geometry" />
        </mxCell>
        <mxCell id="-E05gIv4jN2PlpRda1Wg-3" value="Angel Persona&#xa;(Gentle Prompt)" style="whiteSpace=wrap;strokeWidth=2;direction=east;" parent="1" vertex="1">
          <mxGeometry x="25.5" y="451" width="260" height="78" as="geometry" />
        </mxCell>
        <mxCell id="-E05gIv4jN2PlpRda1Wg-4" value="Devil Persona&#xa;(Direct Prompt)" style="whiteSpace=wrap;strokeWidth=2;direction=east;" parent="1" vertex="1">
          <mxGeometry x="335.5" y="451" width="260" height="78" as="geometry" />
        </mxCell>
        <mxCell id="-E05gIv4jN2PlpRda1Wg-5" value="LLM Call - Angel&#39;s Response" style="strokeWidth=2;shape=process;whiteSpace=wrap;size=0.04;fillStyle=solid;direction=east;" parent="1" vertex="1">
          <mxGeometry x="40.5" y="579" width="231" height="39" as="geometry" />
        </mxCell>
        <mxCell id="-E05gIv4jN2PlpRda1Wg-6" value="LLM Call - Devil&#39;s Response" style="strokeWidth=2;shape=process;whiteSpace=wrap;size=0.04;direction=east;" parent="1" vertex="1">
          <mxGeometry x="353.5" y="579" width="225" height="39" as="geometry" />
        </mxCell>
        <mxCell id="-E05gIv4jN2PlpRda1Wg-7" value="Referee Receives Both Responses&#xa;(Selection Prompt)" style="whiteSpace=wrap;strokeWidth=2;direction=east;" parent="1" vertex="1">
          <mxGeometry x="179" y="728" width="260" height="78" as="geometry" />
        </mxCell>
        <mxCell id="-E05gIv4jN2PlpRda1Wg-8" value="LLM Call - Referee Decision" style="strokeWidth=2;shape=process;whiteSpace=wrap;size=0.04;direction=east;" parent="1" vertex="1">
          <mxGeometry x="196" y="856" width="225" height="39" as="geometry" />
        </mxCell>
        <mxCell id="Cl74_eT5VSmjeDzBY-xy-3" style="edgeStyle=orthogonalEdgeStyle;rounded=0;orthogonalLoop=1;jettySize=auto;html=1;exitX=0;exitY=0.5;exitDx=0;exitDy=0;entryX=0;entryY=0.5;entryDx=0;entryDy=0;" parent="1" source="-E05gIv4jN2PlpRda1Wg-9" target="-E05gIv4jN2PlpRda1Wg-25" edge="1">
          <mxGeometry relative="1" as="geometry">
            <mxPoint x="241.66666666666652" y="241.66666666666674" as="targetPoint" />
            <Array as="points">
              <mxPoint x="-33" y="1064" />
              <mxPoint x="-33" y="242" />
            </Array>
          </mxGeometry>
        </mxCell>
        <mxCell id="Cl74_eT5VSmjeDzBY-xy-14" value="Append referee response to history" style="edgeLabel;html=1;align=center;verticalAlign=middle;resizable=0;points=[];" parent="Cl74_eT5VSmjeDzBY-xy-3" vertex="1" connectable="0">
          <mxGeometry x="-0.7705" y="1" relative="1" as="geometry">
            <mxPoint x="24" as="offset" />
          </mxGeometry>
        </mxCell>
        <mxCell id="-E05gIv4jN2PlpRda1Wg-9" value="Referee Selects Response" style="rhombus;strokeWidth=2;whiteSpace=wrap;direction=east;" parent="1" vertex="1">
          <mxGeometry x="203.5" y="958" width="212" height="214" as="geometry" />
        </mxCell>
        <mxCell id="-E05gIv4jN2PlpRda1Wg-10" value="Final AI Response to User" style="rounded=1;whiteSpace=wrap;arcSize=50;strokeWidth=2;direction=east;" parent="1" vertex="1">
          <mxGeometry x="206" y="1289" width="207" height="39" as="geometry" />
        </mxCell>
        <mxCell id="-E05gIv4jN2PlpRda1Wg-11" value="End" style="rounded=1;whiteSpace=wrap;arcSize=50;strokeWidth=2;direction=east;" parent="1" vertex="1">
          <mxGeometry x="283.5" y="1412" width="52" height="39" as="geometry" />
        </mxCell>
        <mxCell id="-E05gIv4jN2PlpRda1Wg-13" value="" style="curved=1;startArrow=none;endArrow=block;entryX=0.5;entryY=0;rounded=0;fontSize=12;startSize=8;endSize=8;exitX=0.5;exitY=0;exitDx=0;exitDy=0;entryDx=0;entryDy=0;" parent="1" target="-E05gIv4jN2PlpRda1Wg-3" edge="1">
          <mxGeometry relative="1" as="geometry">
            <Array as="points" />
            <mxPoint x="312" y="257" as="sourcePoint" />
          </mxGeometry>
        </mxCell>
        <mxCell id="-E05gIv4jN2PlpRda1Wg-15" value="" style="curved=1;startArrow=none;endArrow=block;exitX=0.5;exitY=1;entryX=0.5;entryY=0;rounded=0;fontSize=12;startSize=8;endSize=8;exitDx=0;exitDy=0;entryDx=0;entryDy=0;" parent="1" source="-E05gIv4jN2PlpRda1Wg-3" target="-E05gIv4jN2PlpRda1Wg-5" edge="1">
          <mxGeometry relative="1" as="geometry">
            <Array as="points" />
          </mxGeometry>
        </mxCell>
        <mxCell id="-E05gIv4jN2PlpRda1Wg-16" value="" style="curved=1;startArrow=none;endArrow=block;exitX=0.5;exitY=1;entryX=0.5;entryY=0;rounded=0;fontSize=12;startSize=8;endSize=8;exitDx=0;exitDy=0;entryDx=0;entryDy=0;" parent="1" source="-E05gIv4jN2PlpRda1Wg-4" target="-E05gIv4jN2PlpRda1Wg-6" edge="1">
          <mxGeometry relative="1" as="geometry">
            <Array as="points" />
          </mxGeometry>
        </mxCell>
        <mxCell id="-E05gIv4jN2PlpRda1Wg-17" value="" style="curved=1;startArrow=none;endArrow=block;exitX=0.5;exitY=1;entryX=0.14;entryY=0;rounded=0;fontSize=12;startSize=8;endSize=8;exitDx=0;exitDy=0;entryDx=0;entryDy=0;" parent="1" source="-E05gIv4jN2PlpRda1Wg-5" target="-E05gIv4jN2PlpRda1Wg-7" edge="1">
          <mxGeometry relative="1" as="geometry">
            <Array as="points">
              <mxPoint x="155.5" y="643" />
            </Array>
          </mxGeometry>
        </mxCell>
        <mxCell id="-E05gIv4jN2PlpRda1Wg-18" value="" style="curved=1;startArrow=none;endArrow=block;exitX=0.5;exitY=1;entryX=0.86;entryY=0;rounded=0;fontSize=12;startSize=8;endSize=8;exitDx=0;exitDy=0;entryDx=0;entryDy=0;" parent="1" source="-E05gIv4jN2PlpRda1Wg-6" target="-E05gIv4jN2PlpRda1Wg-7" edge="1">
          <mxGeometry relative="1" as="geometry">
            <Array as="points">
              <mxPoint x="465.5" y="643" />
            </Array>
          </mxGeometry>
        </mxCell>
        <mxCell id="-E05gIv4jN2PlpRda1Wg-19" value="" style="curved=1;startArrow=none;endArrow=block;exitX=0.5;exitY=1;entryX=0.5;entryY=0;rounded=0;fontSize=12;startSize=8;endSize=8;exitDx=0;exitDy=0;entryDx=0;entryDy=0;" parent="1" source="-E05gIv4jN2PlpRda1Wg-7" target="-E05gIv4jN2PlpRda1Wg-8" edge="1">
          <mxGeometry relative="1" as="geometry">
            <Array as="points" />
          </mxGeometry>
        </mxCell>
        <mxCell id="-E05gIv4jN2PlpRda1Wg-20" value="" style="curved=1;startArrow=none;endArrow=block;exitX=0.5;exitY=1;entryX=0.5;entryY=0;rounded=0;fontSize=12;startSize=8;endSize=8;exitDx=0;exitDy=0;entryDx=0;entryDy=0;" parent="1" source="-E05gIv4jN2PlpRda1Wg-8" target="-E05gIv4jN2PlpRda1Wg-9" edge="1">
          <mxGeometry relative="1" as="geometry">
            <Array as="points" />
          </mxGeometry>
        </mxCell>
        <mxCell id="-E05gIv4jN2PlpRda1Wg-21" value="" style="curved=1;startArrow=none;endArrow=block;exitX=0.5;exitY=1;entryX=0.5;entryY=0;rounded=0;fontSize=12;startSize=8;endSize=8;exitDx=0;exitDy=0;entryDx=0;entryDy=0;" parent="1" source="-E05gIv4jN2PlpRda1Wg-9" target="-E05gIv4jN2PlpRda1Wg-10" edge="1">
          <mxGeometry relative="1" as="geometry">
            <Array as="points" />
          </mxGeometry>
        </mxCell>
        <mxCell id="-E05gIv4jN2PlpRda1Wg-22" value="" style="curved=1;startArrow=none;endArrow=block;exitX=0.5;exitY=1;entryX=0.5;entryY=0;rounded=0;fontSize=12;startSize=8;endSize=8;exitDx=0;exitDy=0;entryDx=0;entryDy=0;" parent="1" source="-E05gIv4jN2PlpRda1Wg-10" target="-E05gIv4jN2PlpRda1Wg-11" edge="1">
          <mxGeometry relative="1" as="geometry">
            <Array as="points" />
          </mxGeometry>
        </mxCell>
        <mxCell id="Cl74_eT5VSmjeDzBY-xy-1" style="edgeStyle=orthogonalEdgeStyle;rounded=0;orthogonalLoop=1;jettySize=auto;html=1;exitX=1;exitY=0.5;exitDx=0;exitDy=0;entryX=1;entryY=0.5;entryDx=0;entryDy=0;" parent="1" source="-E05gIv4jN2PlpRda1Wg-25" target="-E05gIv4jN2PlpRda1Wg-7" edge="1">
          <mxGeometry relative="1" as="geometry">
            <Array as="points">
              <mxPoint x="634" y="242" />
              <mxPoint x="634" y="767" />
            </Array>
          </mxGeometry>
        </mxCell>
        <mxCell id="Cl74_eT5VSmjeDzBY-xy-15" value="Show referee history" style="edgeLabel;html=1;align=center;verticalAlign=middle;resizable=0;points=[];" parent="Cl74_eT5VSmjeDzBY-xy-1" vertex="1" connectable="0">
          <mxGeometry x="0.8645" relative="1" as="geometry">
            <mxPoint x="31" as="offset" />
          </mxGeometry>
        </mxCell>
        <mxCell id="Cl74_eT5VSmjeDzBY-xy-13" style="edgeStyle=orthogonalEdgeStyle;rounded=0;orthogonalLoop=1;jettySize=auto;html=1;exitX=0.5;exitY=0;exitDx=0;exitDy=0;entryX=0.5;entryY=0;entryDx=0;entryDy=0;" parent="1" source="-E05gIv4jN2PlpRda1Wg-2" target="-E05gIv4jN2PlpRda1Wg-25" edge="1">
          <mxGeometry relative="1" as="geometry">
            <Array as="points">
              <mxPoint x="310" y="195" />
              <mxPoint x="310" y="195" />
            </Array>
          </mxGeometry>
        </mxCell>
        <mxCell id="-E05gIv4jN2PlpRda1Wg-25" value="Chat History" style="shape=parallelogram;perimeter=parallelogramPerimeter;fixedSize=1;strokeWidth=2;whiteSpace=wrap;direction=east;" parent="1" vertex="1">
          <mxGeometry x="238.5" y="222" width="142" height="39" as="geometry" />
        </mxCell>
        <mxCell id="-E05gIv4jN2PlpRda1Wg-26" value="" style="curved=1;startArrow=none;endArrow=block;entryX=0.5;entryY=0;rounded=0;fontSize=12;startSize=8;endSize=8;entryDx=0;entryDy=0;exitX=0.5;exitY=1;exitDx=0;exitDy=0;" parent="1" source="-E05gIv4jN2PlpRda1Wg-25" target="-E05gIv4jN2PlpRda1Wg-4" edge="1">
          <mxGeometry relative="1" as="geometry">
            <Array as="points" />
            <mxPoint x="314" y="272" as="sourcePoint" />
            <mxPoint x="343" y="416" as="targetPoint" />
          </mxGeometry>
        </mxCell>
        <mxCell id="Cl74_eT5VSmjeDzBY-xy-9" style="edgeStyle=orthogonalEdgeStyle;rounded=0;orthogonalLoop=1;jettySize=auto;html=1;exitX=1;exitY=0.5;exitDx=0;exitDy=0;entryX=0.25;entryY=0;entryDx=0;entryDy=0;" parent="1" source="-E05gIv4jN2PlpRda1Wg-32" target="-E05gIv4jN2PlpRda1Wg-25" edge="1">
          <mxGeometry relative="1" as="geometry" />
        </mxCell>
        <mxCell id="-E05gIv4jN2PlpRda1Wg-32" value="System Prompt: About Person" style="shape=parallelogram;perimeter=parallelogramPerimeter;whiteSpace=wrap;html=1;fixedSize=1;direction=east;" parent="1" vertex="1">
          <mxGeometry x="-93" y="152" width="204" height="60" as="geometry" />
        </mxCell>
        <mxCell id="-E05gIv4jN2PlpRda1Wg-35" value="Person Object&amp;nbsp;" style="text;strokeColor=none;fillColor=none;html=1;align=center;verticalAlign=middle;whiteSpace=wrap;rounded=0;fontSize=19;fontStyle=1;direction=east;" parent="1" vertex="1">
          <mxGeometry x="513" y="159" width="225" height="83" as="geometry" />
        </mxCell>
      </root>
    </mxGraphModel>
  </diagram>
  <diagram name="schematic" id="ZyOyYKSyBAPCNYZlk8Vk">
    <mxGraphModel dx="2701" dy="1001" grid="0" gridSize="10" guides="1" tooltips="1" connect="1" arrows="1" fold="1" page="0" pageScale="1" pageWidth="827" pageHeight="1169" math="0" shadow="0">
      <root>
        <mxCell id="8PnTKXI-LttFcCI2K3IS-0" />
        <mxCell id="8PnTKXI-LttFcCI2K3IS-1" parent="8PnTKXI-LttFcCI2K3IS-0" />
        <mxCell id="8PnTKXI-LttFcCI2K3IS-3" value="Start: User Prompt" style="rounded=1;whiteSpace=wrap;arcSize=50;strokeWidth=2;direction=east;" vertex="1" parent="8PnTKXI-LttFcCI2K3IS-1">
          <mxGeometry x="-741" y="643.5" width="156" height="39" as="geometry" />
        </mxCell>
        <mxCell id="8PnTKXI-LttFcCI2K3IS-5" value="" style="whiteSpace=wrap;strokeWidth=2;direction=east;rotation=-90;" vertex="1" parent="8PnTKXI-LttFcCI2K3IS-1">
          <mxGeometry x="-550.95" y="310.11" width="827.96" height="722.26" as="geometry" />
        </mxCell>
        <mxCell id="8PnTKXI-LttFcCI2K3IS-15" value="Final AI Response to User" style="rounded=1;whiteSpace=wrap;arcSize=50;strokeWidth=2;direction=east;" vertex="1" parent="8PnTKXI-LttFcCI2K3IS-1">
          <mxGeometry x="305" y="643.5" width="207" height="39" as="geometry" />
        </mxCell>
        <mxCell id="8PnTKXI-LttFcCI2K3IS-16" value="End" style="rounded=1;whiteSpace=wrap;arcSize=50;strokeWidth=2;direction=east;" vertex="1" parent="8PnTKXI-LttFcCI2K3IS-1">
          <mxGeometry x="283.5" y="1412" width="52" height="39" as="geometry" />
        </mxCell>
        <mxCell id="tgHni5jJHY_39Z2ym52O-8" style="edgeStyle=orthogonalEdgeStyle;rounded=0;orthogonalLoop=1;jettySize=auto;html=1;exitX=1;exitY=0.5;exitDx=0;exitDy=0;entryX=0;entryY=0.5;entryDx=0;entryDy=0;" edge="1" parent="8PnTKXI-LttFcCI2K3IS-1" source="8PnTKXI-LttFcCI2K3IS-29" target="8PnTKXI-LttFcCI2K3IS-14">
          <mxGeometry relative="1" as="geometry" />
        </mxCell>
        <mxCell id="0qurDL3mPlgsheSVVU5N-4" value="" style="group" vertex="1" connectable="0" parent="8PnTKXI-LttFcCI2K3IS-1">
          <mxGeometry x="-287" y="436" width="406" height="78" as="geometry" />
        </mxCell>
        <mxCell id="8PnTKXI-LttFcCI2K3IS-6" value="" style="whiteSpace=wrap;strokeWidth=2;direction=east;" vertex="1" parent="0qurDL3mPlgsheSVVU5N-4">
          <mxGeometry width="406" height="78" as="geometry" />
        </mxCell>
        <mxCell id="8PnTKXI-LttFcCI2K3IS-8" value="LLM Call - Angel&#39;s Response" style="strokeWidth=2;shape=process;whiteSpace=wrap;size=0.04;fillStyle=solid;direction=east;" vertex="1" parent="0qurDL3mPlgsheSVVU5N-4">
          <mxGeometry x="168" y="19.5" width="220" height="39" as="geometry" />
        </mxCell>
        <mxCell id="0qurDL3mPlgsheSVVU5N-2" value="&lt;span style=&quot;font-size: 12px; font-weight: 400;&quot;&gt;Angel Persona&lt;/span&gt;&lt;br style=&quot;padding: 0px; margin: 0px; font-size: 12px; font-weight: 400;&quot;&gt;&lt;span style=&quot;font-size: 12px; font-weight: 400;&quot;&gt;(Gentle Prompt)&lt;/span&gt;" style="text;strokeColor=none;fillColor=none;html=1;align=center;verticalAlign=middle;whiteSpace=wrap;rounded=0;fontSize=19;fontStyle=1;direction=east;" vertex="1" parent="0qurDL3mPlgsheSVVU5N-4">
          <mxGeometry x="8" y="7.5" width="160" height="63" as="geometry" />
        </mxCell>
        <mxCell id="tgHni5jJHY_39Z2ym52O-22" style="edgeStyle=orthogonalEdgeStyle;rounded=0;orthogonalLoop=1;jettySize=auto;html=1;exitX=0.25;exitY=1;exitDx=0;exitDy=0;entryX=0.25;entryY=0;entryDx=0;entryDy=0;" edge="1" parent="8PnTKXI-LttFcCI2K3IS-1" source="8PnTKXI-LttFcCI2K3IS-33" target="8PnTKXI-LttFcCI2K3IS-29">
          <mxGeometry relative="1" as="geometry" />
        </mxCell>
        <mxCell id="8PnTKXI-LttFcCI2K3IS-33" value="&lt;font style=&quot;font-size: 18px;&quot;&gt;Person Object&lt;/font&gt;&lt;div&gt;&lt;font style=&quot;font-weight: normal; font-size: 13px;&quot;&gt;(&lt;/font&gt;&lt;span style=&quot;font-size: 13px; font-weight: 400; background-color: transparent; color: light-dark(rgb(0, 0, 0), rgb(255, 255, 255));&quot;&gt;Prompt&amp;nbsp;&lt;/span&gt;&lt;font style=&quot;background-color: transparent; color: light-dark(rgb(0, 0, 0), rgb(255, 255, 255)); font-weight: normal; font-size: 13px;&quot;&gt;About Person)&lt;/font&gt;&lt;span style=&quot;background-color: transparent; color: light-dark(rgb(0, 0, 0), rgb(255, 255, 255));&quot;&gt;&amp;nbsp;&lt;/span&gt;&lt;/div&gt;" style="text;strokeColor=default;fillColor=none;html=1;align=center;verticalAlign=middle;whiteSpace=wrap;rounded=0;fontSize=19;fontStyle=1;direction=east;dashed=1;" vertex="1" parent="8PnTKXI-LttFcCI2K3IS-1">
          <mxGeometry x="-460" y="295" width="182" height="74" as="geometry" />
        </mxCell>
        <mxCell id="0qurDL3mPlgsheSVVU5N-5" value="" style="group" vertex="1" connectable="0" parent="8PnTKXI-LttFcCI2K3IS-1">
          <mxGeometry x="-287" y="831" width="406" height="78" as="geometry" />
        </mxCell>
        <mxCell id="0qurDL3mPlgsheSVVU5N-6" value="" style="whiteSpace=wrap;strokeWidth=2;direction=east;" vertex="1" parent="0qurDL3mPlgsheSVVU5N-5">
          <mxGeometry width="406" height="78" as="geometry" />
        </mxCell>
        <mxCell id="0qurDL3mPlgsheSVVU5N-7" value="LLM Call - Devil&#39;s Response" style="strokeWidth=2;shape=process;whiteSpace=wrap;size=0.04;fillStyle=solid;direction=east;" vertex="1" parent="0qurDL3mPlgsheSVVU5N-5">
          <mxGeometry x="168" y="19.5" width="220" height="39" as="geometry" />
        </mxCell>
        <mxCell id="0qurDL3mPlgsheSVVU5N-8" value="&lt;span style=&quot;font-size: 12px; font-weight: 400;&quot;&gt;Devil Persona&lt;/span&gt;&lt;br style=&quot;padding: 0px; margin: 0px; font-size: 12px; font-weight: 400;&quot;&gt;&lt;span style=&quot;font-size: 12px; font-weight: 400;&quot;&gt;(Direct Prompt)&lt;/span&gt;" style="text;strokeColor=none;fillColor=none;html=1;align=center;verticalAlign=middle;whiteSpace=wrap;rounded=0;fontSize=19;fontStyle=1;direction=east;" vertex="1" parent="0qurDL3mPlgsheSVVU5N-5">
          <mxGeometry x="8" y="7.5" width="160" height="63" as="geometry" />
        </mxCell>
        <mxCell id="tgHni5jJHY_39Z2ym52O-0" value="" style="group" vertex="1" connectable="0" parent="8PnTKXI-LttFcCI2K3IS-1">
          <mxGeometry x="-203" y="562" width="238" height="202" as="geometry" />
        </mxCell>
        <mxCell id="8PnTKXI-LttFcCI2K3IS-14" value="" style="rhombus;strokeWidth=2;whiteSpace=wrap;direction=east;" vertex="1" parent="tgHni5jJHY_39Z2ym52O-0">
          <mxGeometry width="238" height="202" as="geometry" />
        </mxCell>
        <mxCell id="0qurDL3mPlgsheSVVU5N-9" value="LLM Call - Referee Decision" style="strokeWidth=2;shape=process;whiteSpace=wrap;size=0.04;fillStyle=solid;direction=east;" vertex="1" parent="tgHni5jJHY_39Z2ym52O-0">
          <mxGeometry x="29.795622473163263" y="85.4308300395257" width="182.48989265300432" height="31.138339920948617" as="geometry" />
        </mxCell>
        <mxCell id="0qurDL3mPlgsheSVVU5N-10" value="&lt;span style=&quot;font-size: 12px; font-weight: 400;&quot;&gt;Referee Persona&lt;/span&gt;&lt;div&gt;&lt;span style=&quot;font-size: 12px; font-weight: 400;&quot;&gt;(Selection Prompt)&lt;/span&gt;&lt;/div&gt;" style="text;strokeColor=none;fillColor=none;html=1;align=center;verticalAlign=middle;whiteSpace=wrap;rounded=0;fontSize=19;fontStyle=1;direction=east;" vertex="1" parent="tgHni5jJHY_39Z2ym52O-0">
          <mxGeometry x="54.68060783493658" y="32.73517786561265" width="132.71992192945768" height="50.300395256917" as="geometry" />
        </mxCell>
        <mxCell id="tgHni5jJHY_39Z2ym52O-5" style="edgeStyle=orthogonalEdgeStyle;rounded=0;orthogonalLoop=1;jettySize=auto;html=1;exitX=0.5;exitY=1;exitDx=0;exitDy=0;entryX=0.5;entryY=0;entryDx=0;entryDy=0;" edge="1" parent="8PnTKXI-LttFcCI2K3IS-1" source="8PnTKXI-LttFcCI2K3IS-6" target="8PnTKXI-LttFcCI2K3IS-14">
          <mxGeometry relative="1" as="geometry" />
        </mxCell>
        <mxCell id="tgHni5jJHY_39Z2ym52O-7" style="edgeStyle=orthogonalEdgeStyle;rounded=0;orthogonalLoop=1;jettySize=auto;html=1;exitX=0.5;exitY=0;exitDx=0;exitDy=0;entryX=0.5;entryY=1;entryDx=0;entryDy=0;" edge="1" parent="8PnTKXI-LttFcCI2K3IS-1" source="0qurDL3mPlgsheSVVU5N-6" target="8PnTKXI-LttFcCI2K3IS-14">
          <mxGeometry relative="1" as="geometry" />
        </mxCell>
        <mxCell id="tgHni5jJHY_39Z2ym52O-19" style="edgeStyle=orthogonalEdgeStyle;rounded=0;orthogonalLoop=1;jettySize=auto;html=1;exitX=0.5;exitY=1;exitDx=0;exitDy=0;entryX=0;entryY=0.5;entryDx=0;entryDy=0;" edge="1" parent="8PnTKXI-LttFcCI2K3IS-1" source="8PnTKXI-LttFcCI2K3IS-29" target="0qurDL3mPlgsheSVVU5N-6">
          <mxGeometry relative="1" as="geometry" />
        </mxCell>
        <mxCell id="tgHni5jJHY_39Z2ym52O-20" style="edgeStyle=orthogonalEdgeStyle;rounded=0;orthogonalLoop=1;jettySize=auto;html=1;exitX=0.5;exitY=0;exitDx=0;exitDy=0;entryX=0;entryY=0.5;entryDx=0;entryDy=0;" edge="1" parent="8PnTKXI-LttFcCI2K3IS-1" source="8PnTKXI-LttFcCI2K3IS-29" target="8PnTKXI-LttFcCI2K3IS-6">
          <mxGeometry relative="1" as="geometry" />
        </mxCell>
        <mxCell id="8PnTKXI-LttFcCI2K3IS-29" value="Chat History" style="shape=parallelogram;perimeter=parallelogramPerimeter;fixedSize=1;strokeWidth=2;whiteSpace=wrap;direction=east;" vertex="1" parent="8PnTKXI-LttFcCI2K3IS-1">
          <mxGeometry x="-450" y="643.5" width="142" height="39" as="geometry" />
        </mxCell>
        <mxCell id="tgHni5jJHY_39Z2ym52O-21" style="edgeStyle=orthogonalEdgeStyle;rounded=0;orthogonalLoop=1;jettySize=auto;html=1;exitX=1;exitY=0.5;exitDx=0;exitDy=0;entryX=0.25;entryY=1;entryDx=0;entryDy=0;" edge="1" parent="8PnTKXI-LttFcCI2K3IS-1" source="8PnTKXI-LttFcCI2K3IS-14" target="8PnTKXI-LttFcCI2K3IS-29">
          <mxGeometry relative="1" as="geometry">
            <Array as="points">
              <mxPoint x="167" y="663" />
              <mxPoint x="167" y="1003" />
              <mxPoint x="-414" y="1003" />
            </Array>
          </mxGeometry>
        </mxCell>
        <mxCell id="tgHni5jJHY_39Z2ym52O-23" style="edgeStyle=orthogonalEdgeStyle;rounded=0;orthogonalLoop=1;jettySize=auto;html=1;exitX=1;exitY=0.5;exitDx=0;exitDy=0;entryX=0;entryY=0.5;entryDx=0;entryDy=0;" edge="1" parent="8PnTKXI-LttFcCI2K3IS-1" source="8PnTKXI-LttFcCI2K3IS-14" target="8PnTKXI-LttFcCI2K3IS-15">
          <mxGeometry relative="1" as="geometry" />
        </mxCell>
        <mxCell id="tgHni5jJHY_39Z2ym52O-24" style="edgeStyle=orthogonalEdgeStyle;rounded=0;orthogonalLoop=1;jettySize=auto;html=1;exitX=1;exitY=0.5;exitDx=0;exitDy=0;entryX=0;entryY=0.5;entryDx=0;entryDy=0;" edge="1" parent="8PnTKXI-LttFcCI2K3IS-1" source="8PnTKXI-LttFcCI2K3IS-3" target="8PnTKXI-LttFcCI2K3IS-29">
          <mxGeometry relative="1" as="geometry" />
        </mxCell>
      </root>
    </mxGraphModel>
  </diagram>
</mxfile>
